<?xml version="1.0"?>
<svg xmlns="http://www.w3.org/2000/svg" xmlns:xlink="http://www.w3.org/1999/xlink" version="1.1" id="Capa_1" x="0px" y="0px" viewBox="0 0 56 56" style="enable-background:new 0 0 56 56;" xml:space="preserve" width="512px" height="512px" class=""><g><g>
	<path d="M55.5,27.134l-4.789-2.761c-0.382-2.403-1.141-4.681-2.21-6.777l2.255-5.058c0.146-0.327,0.106-0.706-0.104-0.995   c-0.209-0.289-0.563-0.442-0.914-0.407l-5.51,0.582c-1.682-1.677-3.625-3.09-5.758-4.186l-1.148-5.418   c-0.074-0.35-0.329-0.633-0.67-0.744c-0.336-0.109-0.712-0.031-0.979,0.208l-4.104,3.7C30.406,5.096,29.214,5,28,5   s-2.406,0.096-3.569,0.278l-4.104-3.7C20.06,1.339,19.685,1.26,19.348,1.37c-0.341,0.11-0.596,0.394-0.67,0.744L17.53,7.532   c-2.132,1.095-4.075,2.509-5.758,4.186l-5.51-0.582c-0.356-0.035-0.705,0.118-0.914,0.407c-0.211,0.289-0.25,0.668-0.104,0.995   l2.255,5.058c-1.068,2.096-1.827,4.374-2.21,6.777L0.5,27.134C0.19,27.312,0,27.643,0,28s0.19,0.688,0.5,0.866l4.789,2.761   c0.382,2.403,1.141,4.681,2.21,6.777l-2.255,5.058c-0.146,0.327-0.106,0.706,0.104,0.995c0.209,0.289,0.558,0.437,0.914,0.407   l5.51-0.582c1.682,1.677,3.625,3.09,5.758,4.186l1.148,5.418c0.074,0.35,0.329,0.633,0.67,0.744   c0.338,0.11,0.713,0.031,0.979-0.208l4.104-3.7C25.594,50.904,26.786,51,28,51s2.406-0.096,3.569-0.278l4.104,3.7   c0.187,0.168,0.426,0.257,0.67,0.257c0.104,0,0.208-0.016,0.309-0.049c0.341-0.11,0.596-0.394,0.67-0.744l1.148-5.418   c2.132-1.095,4.075-2.509,5.758-4.186l5.51,0.582c0.353,0.031,0.705-0.118,0.914-0.407c0.211-0.289,0.25-0.668,0.104-0.995   l-2.255-5.058c1.068-2.096,1.827-4.374,2.21-6.777l4.788-2.761C55.81,28.687,56,28.357,56,28S55.81,27.312,55.5,27.134z    M48.381,23.028l-1.831-1.056l0.868-1.947C47.816,20.991,48.129,21.998,48.381,23.028z M49,28c0,0.809-0.057,1.604-0.146,2.39   l-4.084,2.355c-0.443,0.256-0.622,0.806-0.413,1.273l1.915,4.295c-0.794,1.402-1.751,2.696-2.834,3.874l-4.659-0.492   c-0.515-0.05-0.978,0.286-1.084,0.787L36.72,47.08c-1.437,0.66-2.951,1.178-4.54,1.5l-3.51-3.164   c-0.19-0.171-0.431-0.257-0.67-0.257s-0.479,0.086-0.67,0.257l-3.51,3.164c-1.588-0.322-3.103-0.84-4.54-1.5l-0.975-4.598   c-0.105-0.501-0.566-0.837-1.084-0.787l-4.659,0.492c-1.084-1.178-2.04-2.472-2.834-3.874l1.915-4.295   c0.209-0.468,0.03-1.018-0.413-1.273L7.146,30.39C7.057,29.604,7,28.809,7,28s0.057-1.604,0.146-2.39l4.084-2.355   c0.443-0.256,0.622-0.806,0.413-1.273l-1.915-4.295c0.794-1.402,1.751-2.696,2.834-3.874l4.659,0.492   c0.518,0.047,0.979-0.286,1.084-0.787L19.28,8.92c1.437-0.66,2.951-1.178,4.54-1.5l3.51,3.164c0.381,0.343,0.959,0.343,1.34,0   l3.51-3.164c1.588,0.322,3.103,0.84,4.54,1.5l0.974,4.598c0.106,0.501,0.569,0.834,1.084,0.787l4.659-0.492   c1.084,1.178,2.04,2.472,2.834,3.874l-1.915,4.295c-0.209,0.468-0.03,1.018,0.413,1.273l4.084,2.355C48.943,26.396,49,27.191,49,28   z M47.265,15.459c-0.43-0.659-0.892-1.295-1.385-1.904l2.345-0.248L47.265,15.459z M41.567,11.999l-2.103,0.222l-0.436-2.058   C39.919,10.715,40.771,11.323,41.567,11.999z M35.725,4.225l0.487,2.296c-0.726-0.278-1.469-0.522-2.227-0.727L35.725,4.225z M28,7   c0.53,0,1.05,0.041,1.571,0.08L28,8.496L26.429,7.08C26.95,7.041,27.47,7,28,7z M20.275,4.225l1.741,1.569   c-0.759,0.205-1.502,0.448-2.227,0.727L20.275,4.225z M16.972,10.162l-0.436,2.058l-2.103-0.222   C15.229,11.323,16.081,10.715,16.972,10.162z M7.775,13.307l2.345,0.248c-0.493,0.61-0.955,1.245-1.385,1.904L7.775,13.307z    M8.582,20.026l0.868,1.947l-1.831,1.056C7.871,21.998,8.184,20.991,8.582,20.026z M3.002,28l2.028-1.169   C5.01,27.218,5,27.608,5,28s0.01,0.782,0.03,1.169L3.002,28z M7.619,32.972l1.831,1.056l-0.868,1.946   C8.184,35.009,7.871,34.002,7.619,32.972z M8.735,40.541c0.43,0.659,0.892,1.294,1.385,1.904l-2.345,0.248L8.735,40.541z    M14.433,44.001l2.103-0.222l0.436,2.058C16.081,45.285,15.229,44.677,14.433,44.001z M20.275,51.775l-0.487-2.296   c0.726,0.278,1.469,0.522,2.227,0.727L20.275,51.775z M28,49c-0.53,0-1.05-0.041-1.571-0.08L28,47.504l1.571,1.416   C29.05,48.959,28.53,49,28,49z M35.725,51.775l-1.741-1.569c0.759-0.205,1.502-0.448,2.227-0.727L35.725,51.775z M39.028,45.838   l0.436-2.058l2.103,0.222C40.771,44.677,39.919,45.285,39.028,45.838z M48.225,42.693l-2.345-0.248   c0.493-0.61,0.955-1.245,1.385-1.904L48.225,42.693z M47.418,35.974l-0.868-1.946l1.831-1.056   C48.129,34.002,47.816,35.009,47.418,35.974z M50.97,29.169C50.99,28.782,51,28.392,51,28s-0.01-0.782-0.03-1.169L52.998,28   L50.97,29.169z" data-original="#000000" class="active-path" data-old_color="#000000" fill="#EE3D3D"/>
</g></g> </svg>
