<?xml version="1.0" encoding="iso-8859-1"?>
<!-- Generator: Adobe Illustrator 19.0.0, SVG Export Plug-In . SVG Version: 6.00 Build 0)  -->
<svg version="1.1" id="Capa_1" xmlns="http://www.w3.org/2000/svg" xmlns:xlink="http://www.w3.org/1999/xlink" x="0px" y="0px"
	 viewBox="0 0 60 60" style="enable-background:new 0 0 60 60;" xml:space="preserve">
<path style="fill:#CB8252;" d="M51.783,24.034c-3.007-1.519-4.684-4.81-4.145-8.136v0c1.075-6.632-6.241-11.383-11.862-7.704
	c-2.819,1.845-6.508,1.652-9.119-0.478l0,0C21.45,3.469,13.678,7.43,14.054,14.138c0.188,3.364-1.824,6.462-4.973,7.658
	c-6.281,2.385-6.738,11.096-0.74,14.125h0c3.007,1.519,4.684,4.81,4.145,8.136c-1.075,6.632,6.241,11.383,11.862,7.704h0
	c2.819-1.845,6.508-1.652,9.119,0.478c5.206,4.247,12.978,0.287,12.603-6.421v0c-0.188-3.364,1.824-6.462,4.973-7.658l0,0
	C57.324,35.773,57.78,27.063,51.783,24.034z M30,47c-9.389,0-17-7.611-17-17s7.611-17,17-17s17,7.611,17,17S39.389,47,30,47z"/>
<path style="fill:#805333;" d="M30,8c-0.552,0-1-0.448-1-1V1c0-0.552,0.448-1,1-1s1,0.448,1,1v6C31,7.552,30.552,8,30,8z"/>
<path style="fill:#805333;" d="M30,60c-0.552,0-1-0.448-1-1v-6c0-0.552,0.448-1,1-1s1,0.448,1,1v6C31,59.552,30.552,60,30,60z"/>
<path style="fill:#805333;" d="M30,48c-9.925,0-18-8.075-18-18s8.075-18,18-18s18,8.075,18,18S39.925,48,30,48z M30,14
	c-8.822,0-16,7.178-16,16s7.178,16,16,16s16-7.178,16-16S38.822,14,30,14z"/>
<path style="fill:#805333;" d="M30.062,56.969c-3.511,0-6.571-1.996-7.987-5.208c-1.173-2.661-3.951-4.292-6.885-3.975
	c-0.337,0.037-0.671,0.055-0.998,0.055h-0.001c-3.271,0-6.235-1.837-7.736-4.794c-1.515-2.986-1.235-6.386,0.748-9.095
	c1.74-2.377,1.74-5.572,0-7.95c-1.982-2.708-2.262-6.108-0.748-9.094c1.65-3.253,5.019-5.141,8.735-4.74
	c2.935,0.315,5.712-1.315,6.885-3.975c1.416-3.212,4.477-5.207,7.987-5.207c3.51,0,6.571,1.995,7.987,5.207
	c1.172,2.66,3.95,4.29,6.885,3.975c3.723-0.405,7.085,1.488,8.735,4.74c1.515,2.986,1.235,6.385-0.748,9.094
	c-1.74,2.377-1.74,5.572,0,7.95c1.982,2.708,2.262,6.108,0.748,9.093c-1.65,3.254-5.016,5.149-8.735,4.741
	C42,47.47,39.221,49.1,38.049,51.761C36.633,54.973,33.572,56.969,30.062,56.969z M15.92,45.747c3.455,0,6.589,2.044,7.984,5.208
	c1.092,2.476,3.451,4.014,6.157,4.014c2.706,0,5.065-1.539,6.157-4.014c1.521-3.451,5.119-5.565,8.931-5.157
	c2.865,0.31,5.459-1.142,6.735-3.657c1.167-2.3,0.951-4.919-0.578-7.007c-2.257-3.084-2.257-7.229,0-10.313
	c1.529-2.088,1.745-4.708,0.578-7.007c-1.275-2.514-3.866-3.968-6.735-3.657C41.344,14.573,37.74,12.452,36.219,9
	c-1.092-2.476-3.451-4.014-6.157-4.014c-2.707,0-5.065,1.538-6.157,4.014c-1.395,3.164-4.529,5.208-7.984,5.208h0
	c-0.313,0-0.629-0.017-0.946-0.051c-2.866-0.309-5.459,1.143-6.735,3.657c-1.167,2.3-0.951,4.919,0.578,7.007
	c2.257,3.084,2.257,7.229,0,10.313c-1.529,2.088-1.745,4.708-0.578,7.008c1.158,2.281,3.438,3.699,5.952,3.699c0,0,0,0,0.001,0
	c0.256,0,0.517-0.014,0.782-0.043C15.291,45.763,15.606,45.747,15.92,45.747z"/>
<path style="fill:#805333;" d="M59,31h-6c-0.552,0-1-0.448-1-1s0.448-1,1-1h6c0.552,0,1,0.448,1,1S59.552,31,59,31z"/>
<path style="fill:#805333;" d="M7,31H1c-0.552,0-1-0.448-1-1s0.448-1,1-1h6c0.552,0,1,0.448,1,1S7.552,31,7,31z"/>
<path style="fill:#805333;" d="M18.501,11.082c-0.346,0-0.682-0.179-0.867-0.5l-3-5.196C14.358,4.907,14.521,4.295,15,4.019
	c0.479-0.276,1.09-0.112,1.366,0.366l3,5.196c0.276,0.479,0.112,1.09-0.366,1.366C18.842,11.039,18.67,11.082,18.501,11.082z"/>
<path style="fill:#805333;" d="M44.501,56.115c-0.346,0-0.682-0.179-0.867-0.5l-3-5.196c-0.276-0.479-0.112-1.09,0.366-1.366
	c0.479-0.277,1.09-0.112,1.366,0.366l3,5.196c0.276,0.479,0.112,1.09-0.366,1.366C44.842,56.072,44.67,56.115,44.501,56.115z"/>
<path style="fill:#805333;" d="M49.919,19.5c-0.346,0-0.682-0.179-0.867-0.5c-0.276-0.479-0.112-1.09,0.366-1.366l5.196-3
	c0.479-0.276,1.09-0.112,1.366,0.366c0.276,0.479,0.112,1.09-0.366,1.366l-5.196,3C50.261,19.457,50.089,19.5,49.919,19.5z"/>
<path style="fill:#805333;" d="M4.886,45.5c-0.346,0-0.682-0.179-0.867-0.5c-0.276-0.479-0.112-1.09,0.366-1.366l5.196-3
	c0.479-0.276,1.089-0.112,1.366,0.366c0.276,0.479,0.112,1.09-0.366,1.366l-5.196,3C5.228,45.457,5.056,45.5,4.886,45.5z"/>
<path style="fill:#805333;" d="M10.081,19.5c-0.169,0-0.341-0.043-0.499-0.134l-5.196-3C3.907,16.09,3.743,15.479,4.019,15
	c0.276-0.479,0.885-0.643,1.366-0.366l5.196,3c0.479,0.276,0.642,0.888,0.366,1.366C10.762,19.321,10.426,19.5,10.081,19.5z"/>
<path style="fill:#805333;" d="M55.114,45.5c-0.169,0-0.341-0.043-0.499-0.134l-5.196-3C48.94,42.09,48.776,41.479,49.052,41
	c0.275-0.479,0.886-0.643,1.366-0.366l5.196,3c0.479,0.276,0.642,0.888,0.366,1.366C55.795,45.321,55.459,45.5,55.114,45.5z"/>
<path style="fill:#805333;" d="M41.499,11.082c-0.169,0-0.341-0.043-0.499-0.134c-0.479-0.276-0.642-0.888-0.366-1.366l3-5.196
	C43.91,3.907,44.52,3.743,45,4.019c0.479,0.276,0.642,0.888,0.366,1.366l-3,5.196C42.181,10.902,41.845,11.082,41.499,11.082z"/>
<path style="fill:#805333;" d="M15.499,56.115c-0.169,0-0.341-0.043-0.499-0.134c-0.479-0.276-0.642-0.888-0.366-1.366l3-5.196
	c0.276-0.478,0.885-0.644,1.366-0.366c0.479,0.276,0.642,0.888,0.366,1.366l-3,5.196C16.181,55.936,15.845,56.115,15.499,56.115z"/>
<path style="fill:#805333;" d="M30,17.517c-0.552,0-1-0.448-1-1V13c0-0.552,0.448-1,1-1s1,0.448,1,1v3.517
	C31,17.069,30.552,17.517,30,17.517z"/>
<path style="fill:#805333;" d="M30,48c-0.552,0-1-0.448-1-1v-3.517c0-0.552,0.448-1,1-1s1,0.448,1,1V47C31,47.552,30.552,48,30,48z"
	/>
<path style="fill:#805333;" d="M47,31h-3.517c-0.552,0-1-0.448-1-1s0.448-1,1-1H47c0.552,0,1,0.448,1,1S47.552,31,47,31z"/>
<path style="fill:#805333;" d="M16.517,31H13c-0.552,0-1-0.448-1-1s0.448-1,1-1h3.517c0.552,0,1,0.448,1,1S17.069,31,16.517,31z"/>
<path style="fill:#805333;" d="M23.26,19.324c-0.346,0-0.682-0.179-0.867-0.5l-1.759-3.046c-0.276-0.479-0.112-1.09,0.366-1.366
	c0.479-0.276,1.09-0.112,1.366,0.366l1.759,3.046c0.276,0.479,0.112,1.09-0.366,1.366C23.601,19.281,23.429,19.324,23.26,19.324z"/>
<path style="fill:#805333;" d="M38.501,45.723c-0.346,0-0.682-0.179-0.867-0.5l-1.759-3.046c-0.276-0.479-0.112-1.09,0.366-1.366
	c0.479-0.277,1.089-0.112,1.366,0.366l1.759,3.046c0.276,0.479,0.112,1.09-0.366,1.366C38.842,45.68,38.67,45.723,38.501,45.723z"/>
<path style="fill:#805333;" d="M41.677,24.259c-0.346,0-0.682-0.179-0.867-0.5c-0.276-0.479-0.112-1.09,0.366-1.366l3.046-1.759
	c0.479-0.277,1.089-0.112,1.366,0.366c0.276,0.479,0.112,1.09-0.366,1.366l-3.046,1.759C42.019,24.216,41.847,24.259,41.677,24.259z
	"/>
<path style="fill:#805333;" d="M15.278,39.5c-0.346,0-0.682-0.179-0.867-0.5c-0.276-0.479-0.112-1.09,0.366-1.366l3.046-1.759
	c0.479-0.277,1.089-0.112,1.366,0.366c0.276,0.479,0.112,1.09-0.366,1.366l-3.046,1.759C15.62,39.457,15.448,39.5,15.278,39.5z"/>
<path style="fill:#805333;" d="M18.323,24.259c-0.169,0-0.341-0.043-0.499-0.134l-3.046-1.759c-0.479-0.276-0.642-0.888-0.366-1.366
	c0.276-0.478,0.887-0.644,1.366-0.366l3.046,1.759c0.479,0.276,0.642,0.888,0.366,1.366C19.004,24.08,18.668,24.259,18.323,24.259z"
	/>
<path style="fill:#805333;" d="M44.722,39.5c-0.169,0-0.341-0.043-0.499-0.134l-3.046-1.759c-0.479-0.276-0.642-0.888-0.366-1.366
	c0.275-0.478,0.886-0.643,1.366-0.366l3.046,1.759c0.479,0.276,0.642,0.888,0.366,1.366C45.403,39.321,45.067,39.5,44.722,39.5z"/>
<path style="fill:#805333;" d="M36.74,19.324c-0.169,0-0.341-0.043-0.499-0.134c-0.479-0.276-0.642-0.888-0.366-1.366l1.759-3.046
	c0.277-0.479,0.887-0.643,1.366-0.366c0.479,0.276,0.642,0.888,0.366,1.366l-1.759,3.046C37.422,19.145,37.086,19.324,36.74,19.324z
	"/>
<path style="fill:#805333;" d="M21.499,45.723c-0.169,0-0.341-0.043-0.499-0.134c-0.479-0.276-0.642-0.888-0.366-1.366l1.759-3.046
	c0.276-0.478,0.886-0.644,1.366-0.366c0.479,0.276,0.642,0.888,0.366,1.366l-1.759,3.046C22.181,45.543,21.845,45.723,21.499,45.723
	z"/>
<g>
</g>
<g>
</g>
<g>
</g>
<g>
</g>
<g>
</g>
<g>
</g>
<g>
</g>
<g>
</g>
<g>
</g>
<g>
</g>
<g>
</g>
<g>
</g>
<g>
</g>
<g>
</g>
<g>
</g>
</svg>
